<?xml version="1.0" encoding="UTF-8"?>
<!-- Generator: Adobe Illustrator 27.8.1, SVG Export Plug-In . SVG Version: 6.00 Build 0)  -->
<svg version="1.1" id="Layer_1" xmlns="http://www.w3.org/2000/svg" xmlns:xlink="http://www.w3.org/1999/xlink" x="0px" y="0px" width="120px" height="120px" viewBox="0 0 120 120" enable-background="new 0 0 120 120" xml:space="preserve">
<style type="text/css">
	.st0{fill:#2B2B2B;}
	.st1{fill:#060607;}
	.st2{fill:#494949;}
	.st3{fill:#161616;}
	.st4{fill:#FFFFFF;}
	.st5{fill:#D1D1D1;}
	.st6{fill:#232323;}
	.st7{fill:#D2D2D2;}
	.st8{fill:#ACACAC;}
	.st9{fill:#7F7F80;}
	.st10{fill:#9B9B9C;}
	.st11{fill:#595959;}
</style>
<g>
	<path class="st0" d="M81.1,10.2c0,1-6.4,5.4-6.3,6.6c0.2,3.7-1.8,7.5-6.4,9.4c-2.1,0.8-4.4,1.3-6.2,0.1c-1.2-0.8-1.5-2.1-1.9-3.3   c-1.1-3.2-1.6-6.5-4.6-9.3c-2.2-2.1-10.4-2.7-6.4-6.3c2.3-2.1,4.9-0.6,6.5,1c0.4,0.4,0.8,0.9,1,1.3c0.2,0,0.4-0.4,0.7-0.9   c0.8-1.5,1.9-4.5,3.7-4.5c2.4,0,3.4,2.3,4,3.9C65.5,9,65.7,9.7,66,9.7c0.1,0,0.3,0,0.4-0.1h0c1.3-0.7,3.6-4.1,4.3-3.9   C72,6,72.4,9.2,73,10.4c0.2,0.3,0.4,0.5,0.6,0.5c0.3,0,0.6-0.2,0.9-0.4c1.3-1.2,1.4-4.6,3.9-4.3C79.1,6.2,81.1,8.1,81.1,10.2"/>
	<path class="st1" d="M55.7,8.3c-0.1,0.7-0.1,1.5,0.4,2.2c0.9,1.3,1.9,2.7,3.7,5.1c0.2-1.2-0.9-4-1.4-5.2c-0.3-0.6-0.6-1.2-1-1.8   l0,0c-0.3,0.5-0.5,0.9-0.7,0.9C56.5,9.2,56.2,8.7,55.7,8.3L55.7,8.3"/>
	<path class="st1" d="M65.1,8.1c-0.8,1-1.2,2.5-1.1,3.7c0.2,2,1,4.8,1.6,5.7c-0.4-2.6,0.3-6.3,0.7-7.9c-0.1,0.1-0.3,0.1-0.4,0.1   c0,0,0,0,0,0C65.7,9.7,65.5,9,65.1,8.1L65.1,8.1"/>
	<path class="st1" d="M73,10.4c0.2,1.3-0.7,4.8-1.8,7.1c0.3-0.3,1.4-2.1,1.6-2.5c0.7-1,1.1-2.1,1.6-3.2c0.2-0.4,0.2-0.9,0.1-1.3l0,0   c-0.2,0.2-0.5,0.3-0.9,0.4c0,0,0,0,0,0C73.4,10.8,73.2,10.6,73,10.4"/>
	<path class="st2" d="M51.3,7.2c-0.6,0-1.1,0.2-1.4,0.5c-1,1.1,0.2,2.4,1.3,2.8c1.4,0.5,2.6,0.9,3.8,1.8c1.1,0.9,2,1.9,2.8,3   c0.8,1,3.1,4,4,5c-1.8-2.8-5.1-7.6-6.9-10.4c-0.6-1-1.4-2.1-2.6-2.5C52,7.3,51.7,7.2,51.3,7.2"/>
	<path class="st2" d="M61.5,5.4c-0.9,0-1.9,0.5-2.3,1.2c-1.1,1.9,0.7,3.7,1.3,5.4c0.8,2.3,2.5,7.8,4.1,9.8C63.9,18.8,63,12.2,63.4,9   c0.2-1.2,0.3-2.6-0.8-3.3C62.3,5.5,61.9,5.4,61.5,5.4"/>
	<path class="st2" d="M70.2,6.5c-1.4,0-2.6,5.2-2.7,6.1c-0.3,2.3-0.3,6.2-0.7,9.3c1.5-2,4.2-6.3,4.8-8.6c0.3-1.1,0.3-2.3,0.1-3.5   c-0.1-0.6-0.6-3.1-1.3-3.3C70.4,6.5,70.3,6.5,70.2,6.5"/>
	<path class="st2" d="M78.2,7.3c-0.1,0-0.1,0-0.2,0c-1.1,0.2-1,1.9-1.4,2.6c-0.5,1-1.2,1.9-1.7,2.9c-1.3,2.6-3.9,6.4-5.2,9.1   c1.1-0.6,3.2-2.2,3.6-3.2s0.7-2.1,1.3-3.1c0.8-1.2,1.8-2.6,3-3.5s2.2-2.2,1.9-3.6C79.4,7.9,78.8,7.3,78.2,7.3"/>
	<path class="st3" d="M112.6,113.1c-15.6,1.7-20-2.4-26-2.4c-0.6,0-1.2,0.2-1.9,0.5c-2.4,1.1-6,3.4-14.5,3.4   c-3.5,0-7.7-0.4-13.1-1.5c-3.5-0.7-7.3,0.3-10.8,1.3c-0.9,0.3-1.8,0.5-2.7,0.7c-1.4,0.4-2.8,0.6-4.1,0.6c-3.2,0.1-6-0.4-8.4-0.9   c-2.6-0.5-4.6-1-5.8-0.9c-6.9,1-12.1,1-15.8-0.6c-0.9-0.4-1.7-0.9-2.4-1.4c1.4-3.2,10-9.9,10-14.8c0.1-11.9,8.8-21.6,9.1-29.7   c0.1-2.8,0.3-6.4,0.7-10.2c0-0.4,0.1-0.8,0.2-1.3c0.8-6.3,2.3-12.8,4.8-17c4.5-7.4,13.9-12.3,19.8-14.3c1.4-0.5,2.6-0.7,3.5-0.8   c8.3-0.9,11.4-1.7,17.8,1.4c0.8,0.4,1.5,0.8,2.3,1.2c3.6,2.1,6.9,4.9,10,8.3c2.9,3.1,5.8,6.8,8.5,10.8c7.1,10.2,3.9,13.7,5.9,23.3   c0.3,1.3,1.2,2.9,2.2,4.6c1.1,1.9,2.2,3.9,2.4,5.5c0.1,1.1,0.2,2.4,0.3,3.8c0.2,5.2,0.1,11.9,0.5,16   C105.8,105.6,106.4,106.5,112.6,113.1"/>
	<path class="st1" d="M60.4,24.7C60.4,24.7,60.3,24.7,60.4,24.7c-0.3,2.1-0.6,4.1-1.6,6c-0.6,1.1-2.7,4.4-4.1,4.4c0,0,0,0,0,0   c0,0,0,0,0,0c2,0,4.1-0.8,5.5-2.2c1.5-1.4,2.4-3.4,2.5-5.4c0-0.5,0-0.9-0.2-1.4C62.2,25.4,61.1,24.7,60.4,24.7"/>
	<path class="st1" d="M64.9,27.1c-0.2,0-0.4,0-0.6,0s-0.4,0-0.5,0c-0.1,0-0.1,0-0.1,0c-0.3,2-0.1,4.2,0,6.2c0,1.1,0.1,2.1,0.1,3.2   c0,0.7,0.5,2.3,0.2,2.9c1.6-3.5,1.8-7.5,2-11.4c0-0.2,0-0.4-0.1-0.6C65.7,27.2,65.3,27.1,64.9,27.1"/>
	<path class="st1" d="M69.4,25.8c-2.5,0.1,1.2,6,1.9,6.6c0.6,0.6,1.3,1,2.1,1.4c0.1-0.3,0.1-0.5,0.2-0.8c0.1-0.4,0.2-0.8,0.3-1.2   c-0.4-0.3-0.9-0.6-1.3-1C71,29.6,70.2,27.6,69.4,25.8"/>
	<path class="st4" d="M71.5,24.3c-4.9,1.5-8.3,1-11.7-2.3l-0.1,1.5c3,7.1,6.9,6.3,12.2,1.4L71.5,24.3z"/>
	<path class="st5" d="M43.6,115.2c-0.1,0-0.2,0-0.3,0.1C43.4,115.2,43.5,115.2,43.6,115.2L43.6,115.2 M30,114.7   c0.3,0.1,0.7,0.1,1.1,0.2c1.7,0.4,3.7,0.7,5.8,0.8c-2.1-0.1-4-0.5-5.7-0.8C30.7,114.9,30.3,114.8,30,114.7 M27,57.4   c-0.4,3.8-0.6,7.3-0.7,10.2c-0.2,8.1-9,17.8-9.1,29.7c0,4.8-8.6,11.5-10,14.8c1.8,1.5,4.2,2.3,7.3,2.6c-1.9-0.2-3.5-0.6-4.9-1.2   c-0.9-0.4-1.7-0.9-2.4-1.4c1.4-3.2,10-9.9,10-14.8c0.1-11.9,8.8-21.6,9.1-29.7C26.3,64.7,26.5,61.1,27,57.4   C27,57.4,27,57.4,27,57.4L27,57.4"/>
	<path class="st0" d="M27,57.4L27,57.4c-0.4,3.8-0.7,7.3-0.7,10.2c-0.2,8.1-9,17.8-9.1,29.7c0,4.8-8.6,11.5-10,14.8   c0.7,0.6,1.5,1.1,2.4,1.4c1.4,0.6,3,1,4.9,1.2l0,0c-1.9-0.2-3.5-0.6-4.9-1.2c3.7-3.2,8.8-4.6,13.8-5.1c0.6-0.1,1.1-0.1,1.7-0.1   c-2.1-1.4-3.5-2.7-2.5-5.4c1.5-4.2,8.7-2.9,9.5-7.4c0.7-3.7-4.5-8.7-2.8-12.1c1.2-2.3,5.2-7.8,6.2-10.1c1.5-3.4-2-7.1-3.9-9.6   C30.1,62,28.7,59,27,57.4"/>
	<path class="st5" d="M70.1,114.6L70.1,114.6c0.1,0,0.2,0,0.3,0h0C70.3,114.6,70.2,114.6,70.1,114.6L70.1,114.6"/>
	<polyline class="st6" points="35.7,47.6 47.3,55.7 69.2,55.7 54,53.8 58.7,50.7 46.6,50.7 35.7,47.6  "/>
	<path class="st6" d="M76,81.1h-9.2l7.9,1.4C75.2,82,75.6,81.5,76,81.1"/>
	<path class="st6" d="M34.5,94c0.2,5.7,3.5,10.8,7.9,13.5c0.9-0.1,1.8-0.3,2.6-0.5C40.3,103.7,35.7,98.1,34.5,94"/>
	<path class="st6" d="M53.5,40.5c12.1,7.9,11.3,7.1,19,11.2c0.5,0,1.5,0,2.7,0c0.1,0,0.3,0,0.4,0c-0.5-1.6-1-3.2-1.4-4.8   c0-0.1-0.1-0.3-0.1-0.4c-0.4,0.2-0.9,0.4-1.5,0.7C69.8,46.1,57.5,42.8,53.5,40.5"/>
	<path class="st6" d="M77.9,58.8l-19.2,8.2l15.4,8.3l5.1-1.9c0.2-1.3,0.4-2.6,0.4-4h-5.3L71,64.8l7.3-4.4   C78.2,59.9,78,59.3,77.9,58.8"/>
	<path class="st5" d="M27.4,54.2c-0.1,0.6-0.2,1.3-0.3,1.9l0,0c0,0,0,0,0,0C27.2,55.5,27.3,54.8,27.4,54.2 M46.8,26.8   c-4.4,2.1-9.3,5.3-12.8,9.4C37.5,32.1,42.4,28.9,46.8,26.8"/>
	<path class="st0" d="M51.7,24.8c-1.5,0.5-3.2,1.2-5,2c-4.4,2.1-9.3,5.3-12.8,9.4c-0.8,0.9-1.4,1.8-2,2.8c-2.3,3.8-3.7,9.4-4.5,15.1   c-0.1,0.6-0.2,1.3-0.3,1.9c0,0,0,0,0,0c1.1-0.4,2.1-1,2.8-1.9c0.7-0.8-0.1-2.8,0.3-3.8c1.4-3,5-4.1,6.8-6.9   c1.4-2.3,1.2-6.2,3.1-8.1c3-3.1,10.8-2.1,11.7-6.3C51.9,27.5,51.9,26.1,51.7,24.8"/>
	<path class="st6" d="M50.1,35.1c-1.9,0-4.1,1.8-4.3,3.7c-0.1,0.7,0.1,1.4-0.2,2c-0.4,0.8-1.4,1.1-2.3,1.3c-0.9,0.2-1.9,0.8-2,1.7   c0,0.6,0.3,1.1,0.7,1.4c0.4,0.3,1,0.5,1.5,0.7c1.2,0.4,2.3,0.7,3.5,1.1c0.2,0.1,0.5,0.1,0.7,0.1c0.2,0,0.3,0,0.5-0.1   c0.5-0.3,0.4-1.1,0.3-1.7c-0.2-1.5,0.3-3.1,1.2-4.3c1.2-1.6,3.5-1.7,2.8-4C52,35.6,51.1,35.1,50.1,35.1"/>
	<path class="st5" d="M93.3,44.9c0.2,0.3,0.4,0.5,0.5,0.8c6.1,8.8,4.6,12.6,5.3,19.6c-0.7-7,0.8-10.8-5.3-19.6   C93.7,45.5,93.5,45.2,93.3,44.9 M85.3,34.9C85.3,34.9,85.3,34.9,85.3,34.9c0.8,0.8,1.6,1.7,2.3,2.6C86.9,36.6,86.1,35.7,85.3,34.9"/>
	<path class="st7" d="M102.6,74.7c0.9,1.5,1.6,3,1.8,4.3C104.2,77.7,103.4,76.2,102.6,74.7"/>
	<path class="st5" d="M55.8,113c0.4,0,0.9,0.1,1.3,0.2c5.3,1.1,9.6,1.5,13.1,1.5c0,0,0,0,0,0c-3.5,0-7.7-0.4-13.1-1.5   C56.6,113.1,56.2,113,55.8,113 M82.9,112.1c-0.2,0.1-0.4,0.2-0.6,0.3c-2.4,1.1-5.9,2.3-11.9,2.3l0,0   C76.9,114.6,80.5,113.2,82.9,112.1 M107.1,106.6c1,1.7,2.7,3.6,5.4,6.5l0,0l0,0c-2.1,0.2-4.1,0.4-5.8,0.4c1.7,0,3.7-0.2,5.8-0.4   C109.8,110.2,108.1,108.3,107.1,106.6 M107.1,106.6C107.1,106.6,107.1,106.6,107.1,106.6C107.1,106.6,107.1,106.6,107.1,106.6    M107.1,106.6L107.1,106.6L107.1,106.6"/>
	<path class="st8" d="M82.3,112.4c-2.4,1.1-5.9,2.3-11.9,2.3c-0.1,0-0.2,0-0.3,0c0,0,0,0,0,0c0,0,0,0,0,0h0c0.1,0,0.2,0,0.3,0   C76.4,114.6,79.9,113.4,82.3,112.4"/>
	<path class="st5" d="M50,113.5c-1.3,0.3-2.5,0.6-3.7,1c0,0,0,0,0,0C47.5,114.1,48.8,113.8,50,113.5 M50,113.5L50,113.5L50,113.5"/>
	<path class="st6" d="M42.4,66.6c-0.7,0-1.1,1.2-0.9,2.7c0.8,5,2.9,10.3,2.3,10.6c0,0,0,0,0,0c-0.3,0-1-1.1-1.8-2.3   c-0.8-1.1-1.7-2.3-2.2-2.3c0,0-0.1,0-0.1,0c-1.8,0.7-0.6,5.1,6.6,16.9c1.5,2.5,4.2,5.2,6.3,8.4c0.5,0.8,1,1.6,1.7,2.2   c1.4-1,2.7-2.2,3.9-3.5c-1.1-3.2-4.7-8.1-4-8.4c0,0,0,0,0,0c0.3,0,1,1.1,1.9,2.1c0.9,1.1,2,2.1,3,2.1c0.1,0,0.2,0,0.3,0   c2.1-0.4,1-4.3,0.2-6.3c-0.8-2-2.1-3.8-3.4-5.5c-2.8-3.6-3.6-11.7-6.1-11.7c-0.1,0-0.1,0-0.2,0c-1.6,0.2-0.1,9-0.9,9.1   c-0.4,0-3.3-8.3-4.9-12.5C43.4,67.2,42.9,66.6,42.4,66.6"/>
	<path class="st0" d="M43.3,115.3c-1.7,0.4-3.3,0.5-4.9,0.5c-0.5,0-1,0-1.6,0c0.7,0,1.4,0.1,2.2,0.1c0.2,0,0.3,0,0.5,0   C40.7,115.8,42,115.6,43.3,115.3 M25.9,114.1c-0.2,0-0.4,0-0.6,0c-3,0.4-5.7,0.7-8.1,0.7c-1,0-1.9,0-2.8-0.1   c0.9,0.1,1.8,0.1,2.8,0.1c2.4,0,5.1-0.2,8.1-0.7C25.5,114.1,25.7,114.1,25.9,114.1c1,0,2.4,0.3,4.1,0.7   C28.3,114.4,26.9,114.1,25.9,114.1 M95,90L95,90l-11.5,6.5l-12.3,2.3l11.7-3.2L95,90 M93,83.4L93,83.4L81.5,90l-12.3,2.3L80.9,89   L93,83.4 M75.3,26.6c-0.7,1.6-1.1,3.5-1.5,5.2c1.7,1.1,3.5,2,5.4,2.8c-0.4,0-0.8,0.1-1.3,0.1c-1.6,0-3.2-0.3-4.6-0.9   c-0.9,4.2-0.3,8.6,0.7,12.7c2.7-1.3,3.4-1.8,7.7-4c-2.5-2.3-5.4-4.5-7.7-7.1c5.2,2,9.9,5.2,14.3,10.4c-1,2.8-1.5,3.6-3,5.6   c-1.9,0.1-6.6,0.2-9.9,0.2c0.8,2.4,1.6,4.7,2.3,7.1l10.6-4.6l-10.1,6.1c0.5,1.9,0.9,3.8,1.2,5.8c0.1,1.1,0.2,2.2,0.2,3.3H90   l-10.8,4c-0.5,2.8-1.6,5.5-3.3,7.6h3.4L90,73.9l-9.5,9.5l-5.8-1c-0.6,0.5-1.2,1-1.9,1.5c-2.9,1.8-6.5,2.5-8.8,5   c-1.8,1.9-2.4,4.6-3.6,7c-0.6,1.3-1.4,2.5-2.3,3.6c0.1,0.2,0.1,0.3,0.2,0.5c0.8,2.9-0.5,3.9-1.8,3.9c-0.6,0-1.1-0.2-1.5-0.4   c-0.2-0.1-0.4-0.3-0.6-0.5c-2.7,1.9-5.9,3.2-9.2,4.1c2.1,1.4,4.1,2.4,6,2.5c-0.5,0.1-1.1,0.1-1.6,0.1c-2.5,0-4.9-0.8-7-2.1   c-0.8,0.1-1.5,0.2-2.3,0.3c-5,0.5-10.1,0.2-15.1,0.5c0.6,0.4,1.3,0.8,1.9,1.2c5,3.1,11.5,2.6,16.7,5.7c0,0,0,0,0,0   c0.9-0.2,1.8-0.5,2.7-0.7c0,0,0,0,0,0c4-2.5,8.4-4.5,13-5.8c1.6-0.4,3.1-0.8,4.7-1.2c-0.4-1.6-0.5-3.3,0.1-4.8c0,0,0,0,0,0l0,0l0,0   c0,0,0,0,0,0c-0.2,0.7,2.6,2.6,4.7,3.9c3.9-0.7,7.8-1.4,11.6-2.7c1-0.3,2.1-0.8,3.1-1.2H72.6l12.1-2.2l7.7-4.3   c1.5-1.8,2.7-3.8,3.4-6.2c0.2-0.7,0.4-1.5,0.5-2.2L85.9,94l-13.3,3L90,87.9c0,0,3-3.9,5.7-7.4c-1.2-4.8-3.9-9.4-6.6-13.7   c4.1-9.1,3-20.3-2.8-28.5c-0.5-1.4-0.9-2.5-1-3.4c0,0,0,0,0,0C82.1,31.5,78.8,28.7,75.3,26.6L75.3,26.6"/>
	<path class="st6" d="M73.8,31.8c-0.1,0.4-0.2,0.8-0.3,1.2c-0.1,0.3-0.1,0.5-0.2,0.8c1.4,0.6,3,0.9,4.6,0.9c0.4,0,0.8,0,1.3-0.1   C77.3,33.8,75.5,32.9,73.8,31.8"/>
	<path class="st6" d="M25,108.3c-0.6,0-1.1,0.1-1.7,0.1c-5,0.5-10.1,1.9-13.8,5.1c1.4,0.6,3,1,4.9,1.2c0.9,0.1,1.8,0.1,2.8,0.1   c2.4,0,5.1-0.2,8.1-0.7c0.2,0,0.4,0,0.6,0c1,0,2.4,0.3,4.1,0.7c0.4,0.1,0.8,0.2,1.2,0.2c1.7,0.3,3.6,0.7,5.7,0.8c0.5,0,1,0,1.6,0   c1.6,0,3.2-0.2,4.9-0.5c0.1,0,0.2,0,0.3-0.1c-5.2-3.2-11.6-2.6-16.7-5.7C26.2,109,25.6,108.7,25,108.3"/>
	<polyline class="st9" points="64,102.7 64,102.7 64,102.7  "/>
	<path class="st6" d="M64,102.7c-0.5,1.6-0.5,3.2-0.1,4.8c1.6-0.3,3.1-0.6,4.7-0.9C66.6,105.3,63.8,103.4,64,102.7"/>
	<path class="st6" d="M90,73.9l-10.7,7.1H76c-0.4,0.5-0.8,0.9-1.3,1.4l5.8,1L90,73.9"/>
	<path class="st6" d="M92.4,96.2l-7.7,4.3l-12.1,2.2h10.9C86.8,101.2,90,99,92.4,96.2"/>
	<polyline class="st6" points="95,90 82.9,95.7 71.2,98.9 83.5,96.6 95,90  "/>
	<polyline class="st6" points="93,83.4 80.9,89 69.2,92.3 81.5,90 93,83.4  "/>
	<path class="st6" d="M45,106.9c-0.9,0.2-1.7,0.4-2.6,0.5c2.1,1.3,4.5,2.1,7,2.1c0.5,0,1.1,0,1.6-0.1   C49.1,109.3,47.1,108.4,45,106.9"/>
	<path class="st6" d="M74.1,35.4c2.3,2.6,5.1,4.8,7.7,7.1c-4.3,2.2-5,2.7-7.7,4c0,0.1,0.1,0.3,0.1,0.4c0.4,1.6,0.9,3.2,1.4,4.8   c3.3,0,7.9-0.1,9.9-0.2c1.5-2.1,2-2.8,3-5.6C84,40.6,79.4,37.4,74.1,35.4"/>
	<path class="st6" d="M90,69.5H79.7c0,1.3-0.2,2.7-0.4,4L90,69.5 M88.5,54.3l-10.6,4.6c0.2,0.5,0.3,1,0.4,1.6L88.5,54.3"/>
	<path class="st6" d="M95.7,80.5C93,83.9,90,87.9,90,87.9l-17.5,9.1l13.3-3l10.4-6.1C96.6,85.4,96.3,82.9,95.7,80.5"/>
	<path class="st10" d="M87.6,37.5c1.9,2.3,3.8,4.8,5.7,7.4C91.4,42.3,89.6,39.8,87.6,37.5"/>
	<path class="st10" d="M99.2,65.3c0.1,1.1,0.3,2.3,0.6,3.7c0.3,1.3,1.2,2.9,2.2,4.6c0.2,0.4,0.4,0.7,0.6,1.1   c-0.2-0.4-0.4-0.7-0.6-1.1c-1-1.7-1.9-3.3-2.2-4.6C99.5,67.6,99.3,66.4,99.2,65.3"/>
	<path class="st10" d="M104.4,79C104.4,79,104.4,79.1,104.4,79c0.1,1.2,0.2,2.5,0.3,3.9c0.2,5.2,0.1,11.9,0.5,16   c0.3,3.6,0.7,5.6,1.9,7.7c-1.2-2.1-1.6-4-1.9-7.7c-0.4-4.1-0.3-10.8-0.5-16C104.6,81.5,104.5,80.2,104.4,79   C104.4,79.1,104.4,79,104.4,79"/>
	<path class="st10" d="M86.5,110.8c-0.6,0-1.2,0.2-1.9,0.5l0,0l0,0l0,0c-0.5,0.2-1.1,0.5-1.8,0.8c0.7-0.3,1.2-0.6,1.8-0.8   C85.4,111,85.9,110.8,86.5,110.8c5,0,8.8,2.8,18.8,2.8c0.5,0,0.9,0,1.4,0c-0.5,0-1,0-1.4,0C95.3,113.6,91.5,110.8,86.5,110.8    M107.1,106.6C107.1,106.6,107.1,106.6,107.1,106.6C107.1,106.6,107.1,106.6,107.1,106.6"/>
	<path class="st10" d="M50,113.5C50,113.5,50,113.5,50,113.5C50,113.5,50,113.5,50,113.5 M54.6,112.9c-1.5,0-3.1,0.2-4.6,0.6   C51.6,113.2,53.1,112.9,54.6,112.9c0.4,0,0.8,0,1.2,0C55.4,112.9,55,112.9,54.6,112.9"/>
	<path class="st2" d="M85.3,34.9c0.2,0.9,0.5,2,1,3.4c5.7,8.2,6.8,19.4,2.8,28.5c2.6,4.3,5.3,8.9,6.6,13.7c2.1-2.6,4-5,4.4-5.1   l1.9-1.8c0.2,0.4,0.4,0.7,0.6,1.1l0,0c-0.2-0.4-0.4-0.7-0.6-1.1c-1-1.7-1.9-3.3-2.2-4.6c-0.3-1.3-0.5-2.5-0.6-3.7   c-0.7-7,0.8-10.8-5.3-19.6c-0.2-0.3-0.4-0.5-0.5-0.8c-1.9-2.7-3.8-5.1-5.7-7.4C86.9,36.6,86.1,35.8,85.3,34.9"/>
	<path class="st2" d="M84.7,111.3c-0.7,0.3-1.4,0.7-2.3,1.1c0.2-0.1,0.4-0.2,0.6-0.3C83.6,111.8,84.1,111.5,84.7,111.3 M64,107.5   c-1.6,0.3-3.2,0.7-4.7,1.2c-4.6,1.3-8.9,3.3-13,5.8c1.2-0.3,2.5-0.7,3.7-1c0,0,0,0,0,0h0c1.5-0.3,3.1-0.6,4.6-0.6   c0.4,0,0.8,0,1.2,0c0.4,0,0.9,0.1,1.3,0.2c5.3,1.1,9.6,1.5,13.1,1.5c-1.5-0.8-2.8-1.8-3.9-3C65.2,110.4,64.4,109,64,107.5    M83.7,108.1c0-1.2,0.9-2.2,1.9-2.7c2.2-1.2,4.6-1.5,6.7-2.9c1.8-1.1,5.3-5.6,8-6.9c3.3,4.4,4.6,12,7,14.8   c-5.7-2.1-11.5-3.3-16.9-3.3c-0.4,0-0.7,0-1.1,0C87.5,107.3,85.6,107.7,83.7,108.1 M104.4,79C104.4,79,104.4,79.1,104.4,79   c0.1,1.2,0.2,2.5,0.3,3.9l-8.4,5c-0.1,0.7-0.3,1.5-0.5,2.2c-0.7,2.3-1.8,4.4-3.4,6.2l5.2-2.9l-12.5,9.3h-1.7   c-1,0.5-2.1,0.9-3.1,1.2c-3.8,1.3-7.7,2-11.6,2.7c0.9,0.6,1.7,1,2,1.2c2.5,1.4,5.3,2.4,8.1,2.9c1.6,0.3,4.2,0,5.9,0.6l0,0   c0.7-0.3,1.3-0.5,1.9-0.5c5,0,8.8,2.8,18.8,2.8c0.5,0,0.9,0,1.4,0c1.7,0,3.7-0.2,5.8-0.4c-2.8-3-4.4-4.8-5.4-6.5c0,0,0,0,0,0   c0,0,0,0,0,0c0,0,0,0,0,0l0,0c-1.2-2.1-1.6-4-1.9-7.7c-0.4-4.1-0.3-10.8-0.5-16c-0.1-1.4-0.2-2.7-0.3-3.8   C104.4,79.1,104.4,79,104.4,79L104.4,79"/>
	<path class="st6" d="M68.7,106.6c-1.6,0.3-3.2,0.6-4.7,0.9c0.4,1.5,1.2,2.9,2.2,4.1c1.1,1.3,2.5,2.2,3.9,3c0,0,0,0,0,0   c0.1,0,0.2,0,0.3,0c6,0,9.5-1.2,11.9-2.3c0.9-0.4,1.7-0.8,2.3-1.1l0,0c-1.7-0.6-4.3-0.3-5.9-0.6c-2.8-0.5-5.6-1.5-8.1-2.9   C70.4,107.6,69.6,107.2,68.7,106.6"/>
	<path class="st11" d="M97.6,93.4l-5.2,2.9c-2.4,2.8-5.6,4.9-9,6.4h1.7L97.6,93.4"/>
	<path class="st6" d="M100.3,95.5c-2.7,1.3-6.3,5.8-8,6.9c-2.1,1.4-4.6,1.7-6.7,2.9c-1,0.6-1.9,1.6-1.9,2.7c1.9-0.4,3.8-0.7,5.7-1.1   c0.4,0,0.7,0,1.1,0c5.4,0,11.2,1.2,16.9,3.3C104.9,107.5,103.7,99.9,100.3,95.5"/>
	<path class="st6" d="M102,73.6l-1.9,1.8c-0.4,0.2-2.3,2.5-4.4,5.1c0.6,2.4,0.9,4.9,0.5,7.4l8.4-5c-0.1-1.4-0.2-2.7-0.3-3.8   c0,0,0-0.1,0-0.1c-0.2-1.3-1-2.8-1.8-4.3C102.4,74.3,102.2,73.9,102,73.6"/>
	<path class="st6" d="M58.1,99.4c-1.1,1.3-2.4,2.5-3.9,3.5c0.2,0.2,0.4,0.3,0.6,0.5c0.4,0.3,1,0.4,1.5,0.4c1.4,0,2.7-1,1.8-3.9   C58.2,99.7,58.1,99.6,58.1,99.4"/>
</g>
</svg>