<?xml version="1.0" encoding="UTF-8"?>
<!-- Generator: Adobe Illustrator 15.0.2, SVG Export Plug-In . SVG Version: 6.00 Build 0)  -->
<!DOCTYPE svg PUBLIC "-//W3C//DTD SVG 1.1//EN" "http://www.w3.org/Graphics/SVG/1.1/DTD/svg11.dtd">
<svg version="1.1" id="Layer_1" xmlns="http://www.w3.org/2000/svg" xmlns:xlink="http://www.w3.org/1999/xlink" x="0px" y="0px" width="120px" height="120px" viewBox="0 0 120 120" enable-background="new 0 0 120 120" xml:space="preserve">
<g>
	<g>
		<polygon stroke="#000000" stroke-width="2.8" stroke-miterlimit="10" points="32.179,4.972 23.804,4.972 23.05,4.972     14.675,4.972 10.644,7.962 10.644,28.313 15.562,28.313 15.562,10.798 18.193,9.208 28.697,9.208 31.328,10.798 31.328,28.313     36.21,28.313 36.21,7.961   "/>
		<polygon stroke="#000000" stroke-width="2.8" stroke-miterlimit="10" points="105.804,4.972 97.43,4.972 96.676,4.972 88.3,4.972     84.269,7.962 84.269,28.313 89.188,28.313 89.188,10.798 91.818,9.208 102.322,9.208 104.953,10.798 104.953,28.313     109.836,28.313 109.836,7.961   "/>
	</g>
	<g>
		<polygon fill="#2C66A6" points="110.735,116.874 9.469,116.874 3.778,110.771 3.778,20.932 116.7,20.932 116.7,110.771   "/>
		<g>
			<path fill="#D2D2D2" d="M77.617,91.299c0,2.659-2.16,4.818-4.821,4.818H47.682c-2.662,0-4.819-2.159-4.819-4.818v-44.79     c0-2.658,2.157-4.821,4.819-4.821h25.112c2.662,0,4.821,2.163,4.821,4.821L77.617,91.299L77.617,91.299z"/>
			<g>
				<g>
					<polygon fill="#007A6D" points="69.796,46.289 69.796,91.517 60.688,86.029 59.788,86.029 50.683,91.517 50.683,46.289             "/>
					<g>
						<circle fill="#FFFFFF" cx="60.239" cy="64.067" r="11.911"/>
						<circle fill="#D2D2D2" cx="60.238" cy="64.07" r="7.903"/>
					</g>
				</g>
			</g>
		</g>
	</g>
</g>
</svg>