<?xml version="1.0" encoding="UTF-8"?>
<!-- Generator: Adobe Illustrator 15.0.2, SVG Export Plug-In . SVG Version: 6.00 Build 0)  -->
<!DOCTYPE svg PUBLIC "-//W3C//DTD SVG 1.1//EN" "http://www.w3.org/Graphics/SVG/1.1/DTD/svg11.dtd">
<svg version="1.1" id="Layer_1" xmlns="http://www.w3.org/2000/svg" xmlns:xlink="http://www.w3.org/1999/xlink" x="0px" y="0px" width="120px" height="120px" viewBox="0 0 120 120" enable-background="new 0 0 120 120" xml:space="preserve">
<g>
	<g>
		<path fill-rule="evenodd" clip-rule="evenodd" fill="#434F7F" d="M54.115,91.832c-12.737,0-25.475,0-38.212,0    c-1.753-18.406-3.107-32.313-5.04-50.541c-5.575,0.531-4.084-8.345-3.36-12.319c16.295,0,32.591,0,48.887,0h7.076    c16.296,0,32.592,0,48.887,0c0.725,3.975,2.215,12.85-3.359,12.319c-1.933,18.228-3.286,32.135-5.041,50.541    c-12.736,0-25.475,0-38.211,0H54.115z"/>
		<path fill-rule="evenodd" clip-rule="evenodd" fill="#020202" d="M10.115,41.787c-6.243-1.359-6.15-9.485-2.91-12.815    c32.667,0,73.383,0,106.051,0c2.176,3.238,2.96,11.159-3.422,13.093C109.834,42.065,12.058,42.21,10.115,41.787z"/>
	</g>
	<g>
		<path fill="#D2D2D2" d="M72.801,82.672c0,1.971-1.6,3.57-3.571,3.57H50.627c-1.972,0-3.57-1.6-3.57-3.57V49.494    c0-1.969,1.598-3.57,3.57-3.57h18.602c1.972,0,3.571,1.602,3.571,3.57L72.801,82.672L72.801,82.672z"/>
		<g>
			<g>
				<polygon fill="#007A6D" points="67.008,49.332 67.008,82.834 60.262,78.77 59.594,78.77 52.85,82.834 52.85,49.332     "/>
				<g>
					<circle fill="#FFFFFF" cx="59.928" cy="62.5" r="8.823"/>
					<circle fill="#D2D2D2" cx="59.928" cy="62.503" r="5.854"/>
				</g>
			</g>
		</g>
	</g>
</g>
</svg>