<?xml version="1.0" encoding="UTF-8"?>
<!-- Generator: Adobe Illustrator 15.0.2, SVG Export Plug-In . SVG Version: 6.00 Build 0)  -->
<!DOCTYPE svg PUBLIC "-//W3C//DTD SVG 1.1//EN" "http://www.w3.org/Graphics/SVG/1.1/DTD/svg11.dtd">
<svg version="1.1" id="Layer_1" xmlns="http://www.w3.org/2000/svg" xmlns:xlink="http://www.w3.org/1999/xlink" x="0px" y="0px" width="120px" height="120px" viewBox="0 0 120 120" enable-background="new 0 0 120 120" xml:space="preserve">
<g>
	<g>
		<path fill="#0E783D" d="M93.31,19.289c-3.36-7.5-63.712-7.5-67.072,0c-1.944,4.339-1.62,24.693-0.56,29.4    c0.654,2.907,4.208,4.599,5.04,7.84c0.826,3.222-1.419,43.394,3.92,48.16c5.411,4.832,44.861,4.832,50.272,0    c5.338-4.767,3.093-44.938,3.92-48.16c0.832-3.241,4.385-4.933,5.04-7.84C94.93,43.982,95.254,23.628,93.31,19.289z M87.15,47.569    c0.341-3.141-1.139-4.938-2.801-5.6c-1.26-0.494-4.479,0-6.72,0c-1.421-1.194-1.429-5.549-3.92-5.671c-4.452,0-23.42,0-27.873,0    c-2.492,0.122-2.5,4.477-3.919,5.671c-2.24,0-5.262-0.426-6.721,0c-1.955,0.57-3.141,2.459-2.8,5.6    c-1.01-7.173-0.827-17.998,0-25.2c5.256-1.804,49.496-1.804,54.753,0C87.977,29.571,88.159,40.396,87.15,47.569z"/>
		<g>
			<path fill="#333333" d="M93.31,19.289c-3.36-7.5-63.712-7.5-67.072,0c-1.944,4.339-1.62,24.693-0.56,29.4     c0.654,2.907,4.208,4.599,5.04,7.84c0,0,0.402-2.403,0.775-4.375s0.905-4.584,0.905-4.584c-1.01-7.173-0.827-17.998,0-25.2     c5.256-1.804,49.496-1.804,54.753,0c0.826,7.202,1.009,18.027,0,25.2c0,0,0.524,1.997,0.919,4.377     c0.396,2.38,0.761,4.583,0.761,4.583c0.832-3.241,4.385-4.933,5.04-7.84C94.93,43.982,95.254,23.628,93.31,19.289z"/>
		</g>
	</g>
	<g>
		<path fill="#D2D2D2" d="M72.646,92.68c0,1.97-1.6,3.569-3.571,3.569H50.472c-1.972,0-3.57-1.6-3.57-3.569V59.502    c0-1.969,1.599-3.571,3.57-3.571h18.602c1.972,0,3.571,1.603,3.571,3.571L72.646,92.68L72.646,92.68z"/>
		<g>
			<g>
				<polygon fill="#007A6D" points="66.853,59.339 66.853,92.841 60.106,88.775 59.439,88.775 52.694,92.841 52.694,59.339     "/>
				<g>
					<circle fill="#FFFFFF" cx="59.773" cy="72.508" r="8.822"/>
					<circle fill="#D2D2D2" cx="59.772" cy="72.511" r="5.854"/>
				</g>
			</g>
		</g>
	</g>
</g>
</svg>