<?xml version="1.0" encoding="UTF-8"?>
<!-- Generator: Adobe Illustrator 15.0.2, SVG Export Plug-In . SVG Version: 6.00 Build 0)  -->
<!DOCTYPE svg PUBLIC "-//W3C//DTD SVG 1.1//EN" "http://www.w3.org/Graphics/SVG/1.1/DTD/svg11.dtd">
<svg version="1.1" id="Layer_1" xmlns="http://www.w3.org/2000/svg" xmlns:xlink="http://www.w3.org/1999/xlink" x="0px" y="0px" width="120px" height="120px" viewBox="0 0 120 120" enable-background="new 0 0 120 120" xml:space="preserve">
<g>
	<path fill="#FFA300" d="M81.074,10.187c0,1.021-6.369,5.389-6.299,6.62c0.213,3.686-1.784,7.521-6.416,9.363   c-2.096,0.833-4.412,1.328-6.24,0.104c-1.172-0.784-1.501-2.082-1.928-3.312c-1.102-3.161-1.644-6.477-4.593-9.326   c-2.172-2.098-10.414-2.658-6.389-6.339c2.289-2.097,4.934-0.588,6.513,0.995c0.439,0.439,0.794,0.885,1.039,1.259   c0.202-0.004,0.434-0.353,0.702-0.873c0.79-1.518,1.917-4.482,3.679-4.482c2.392,0,3.374,2.306,3.993,3.939   c0.342,0.9,0.57,1.595,0.865,1.591c0.122-0.002,0.256-0.046,0.404-0.126h0.003c1.312-0.712,3.55-4.138,4.286-3.941   c1.296,0.349,1.688,3.501,2.356,4.701c0.165,0.298,0.352,0.476,0.568,0.459c0.349-0.027,0.636-0.165,0.878-0.376   c1.338-1.165,1.4-4.577,3.875-4.309C79.09,6.213,81.074,8.099,81.074,10.187"/>
	<path fill="#B37200" d="M55.723,8.293c-0.129,0.683-0.053,1.534,0.419,2.172c0.941,1.271,1.857,2.723,3.732,5.139   c0.214-1.232-0.894-3.995-1.369-5.172c-0.251-0.617-0.632-1.19-1.042-1.752l0,0c-0.268,0.52-0.5,0.868-0.702,0.873   C56.517,9.178,56.162,8.732,55.723,8.293L55.723,8.293"/>
	<path fill="#B37200" d="M65.135,8.137c-0.805,0.999-1.224,2.47-1.085,3.651c0.231,1.997,0.952,4.84,1.622,5.681   c-0.404-2.616,0.34-6.317,0.732-7.868C66.256,9.682,66.122,9.726,66,9.728c-0.001,0-0.002,0-0.003,0   C65.704,9.728,65.476,9.034,65.135,8.137L65.135,8.137"/>
	<path fill="#B37200" d="M73.05,10.361c0.171,1.325-0.708,4.836-1.849,7.108c0.293-0.313,1.388-2.146,1.637-2.486   c0.731-0.995,1.147-2.128,1.582-3.248c0.16-0.414,0.168-0.866,0.076-1.291l0,0c-0.242,0.211-0.529,0.349-0.878,0.376   c-0.01,0-0.019,0.001-0.028,0.001C73.386,10.821,73.208,10.647,73.05,10.361"/>
	<path fill="#FFB126" d="M51.328,7.222c-0.557,0-1.101,0.168-1.443,0.542c-0.964,1.054,0.175,2.362,1.341,2.788   c1.416,0.517,2.612,0.852,3.781,1.804c1.087,0.885,1.964,1.943,2.833,2.993c0.817,0.987,3.141,3.98,3.957,4.968   c-1.799-2.797-5.104-7.601-6.903-10.398c-0.647-1.007-1.381-2.083-2.607-2.529C51.988,7.28,51.655,7.222,51.328,7.222"/>
	<path fill="#FFB126" d="M61.524,5.446c-0.902,0-1.854,0.508-2.27,1.238c-1.061,1.865,0.72,3.688,1.325,5.421   c0.8,2.292,2.5,7.827,4.09,9.804c-0.789-3.158-1.691-9.684-1.261-12.894c0.155-1.161,0.281-2.563-0.796-3.266   C62.291,5.54,61.912,5.446,61.524,5.446"/>
	<path fill="#FFB126" d="M70.239,6.507c-1.422,0-2.626,5.235-2.72,6.089c-0.253,2.324-0.305,6.224-0.676,9.312   c1.544-1.953,4.154-6.296,4.762-8.604c0.299-1.134,0.344-2.317,0.148-3.468c-0.104-0.616-0.549-3.054-1.335-3.302   C70.359,6.517,70.299,6.507,70.239,6.507"/>
	<path fill="#FFB126" d="M78.192,7.298c-0.072,0-0.146,0.008-0.221,0.024C76.846,7.57,77,9.178,76.605,9.898   c-0.546,0.996-1.209,1.923-1.726,2.948c-1.325,2.632-3.868,6.432-5.193,9.063c1.097-0.556,3.23-2.18,3.601-3.233   s0.665-2.129,1.32-3.072c0.819-1.179,1.809-2.614,2.974-3.548c1.166-0.934,2.189-2.239,1.898-3.591   C79.356,7.891,78.824,7.298,78.192,7.298"/>
	<path fill="#FFA300" d="M112.551,113.148c-15.649,1.738-20.013-2.369-26.019-2.369c-0.589,0-1.181,0.199-1.871,0.502   c-2.405,1.055-5.994,3.413-14.531,3.365c-3.46-0.02-7.74-0.439-13.08-1.498c-3.512-0.694-7.273,0.337-10.777,1.322   c-0.918,0.259-1.82,0.51-2.691,0.726c-1.44,0.357-2.805,0.616-4.056,0.636c-3.197,0.052-6.046-0.416-8.405-0.884   c-2.601-0.516-4.604-1.031-5.82-0.851c-6.904,1.024-12.143,0.961-15.775-0.612c-0.898-0.384-1.699-0.866-2.401-1.447   c1.428-3.229,10.02-9.938,10.047-14.774c0.067-11.934,8.831-21.644,9.078-29.718c0.083-2.824,0.298-6.41,0.733-10.164   c0.047-0.42,0.099-0.836,0.153-1.26c0.804-6.277,2.256-12.845,4.802-17.026c4.492-7.379,13.938-12.338,19.792-14.257   c1.42-0.463,2.625-0.749,3.495-0.847c8.321-0.934,11.401-1.703,17.804,1.405c0.765,0.372,1.519,0.776,2.26,1.216   c3.55,2.091,6.857,4.904,10.023,8.302c2.938,3.142,5.759,6.782,8.541,10.8c7.081,10.216,3.911,13.703,5.896,23.256   c0.273,1.326,1.228,2.943,2.204,4.614c1.103,1.898,2.24,3.86,2.44,5.508c0.133,1.11,0.224,2.409,0.29,3.821   c0.231,5.21,0.11,11.91,0.494,16.019C105.807,105.565,106.387,106.511,112.551,113.148"/>
	<path fill="#B37200" d="M60.36,24.726c-0.009,0-0.018,0-0.026,0c-0.271,2.137-0.528,4.075-1.59,6.009   c-0.582,1.061-2.696,4.448-4.119,4.448c-0.001,0-0.002,0-0.003,0c0.008,0,0.017,0,0.026,0c2.034,0,4.057-0.806,5.533-2.205   c1.481-1.406,2.395-3.395,2.495-5.434c0.022-0.458,0.002-0.932-0.183-1.352C62.156,25.431,61.147,24.726,60.36,24.726"/>
	<path fill="#B37200" d="M64.875,27.114c-0.198,0-0.405,0.015-0.6,0.03s-0.377,0.03-0.527,0.03c-0.054,0-0.103-0.002-0.147-0.006   c-0.324,1.979-0.104,4.198-0.042,6.205c0.033,1.06,0.082,2.12,0.147,3.179c0.041,0.665,0.482,2.299,0.218,2.884   c1.593-3.523,1.819-7.49,2.021-11.352c0.011-0.212,0.019-0.439-0.091-0.622C65.686,27.182,65.298,27.114,64.875,27.114"/>
	<path fill="#B37200" d="M69.429,25.756c-2.464,0.099,1.234,6.031,1.876,6.639c0.605,0.574,1.311,1.031,2.079,1.382   c0.055-0.27,0.116-0.538,0.183-0.805c0.093-0.369,0.181-0.758,0.27-1.161c-0.437-0.296-0.865-0.615-1.284-0.962   C71.012,29.574,70.191,27.64,69.429,25.756"/>
	<path fill="#FFFFFF" d="M71.537,24.286c-4.891,1.499-8.277,1.011-11.676-2.316l-0.129,1.503c3.002,7.136,6.883,6.285,12.165,1.399   L71.537,24.286z"/>
	<path fill="#D1D1D1" d="M43.579,115.197c-0.094,0.023-0.188,0.046-0.281,0.068c0.094-0.021,0.188-0.044,0.283-0.067   C43.58,115.198,43.579,115.197,43.579,115.197 M29.978,114.716c0.337,0.071,0.686,0.144,1.045,0.217   c1.729,0.352,3.697,0.702,5.809,0.826c-2.116-0.146-4.037-0.479-5.71-0.811C30.726,114.87,30.345,114.792,29.978,114.716    M26.982,57.38c-0.436,3.755-0.649,7.34-0.734,10.167c-0.247,8.075-9.01,17.781-9.076,29.717   c-0.029,4.837-8.621,11.547-10.048,14.776c1.809,1.491,4.263,2.328,7.378,2.621c-1.905-0.18-3.562-0.563-4.977-1.176   c-0.898-0.384-1.699-0.866-2.401-1.447c1.428-3.229,10.02-9.938,10.047-14.774c0.067-11.934,8.831-21.644,9.078-29.718   c0.083-2.824,0.298-6.41,0.733-10.164C26.983,57.381,26.983,57.381,26.982,57.38C26.983,57.38,26.983,57.38,26.982,57.38"/>
	<path fill="#D18600" d="M26.983,57.381C26.983,57.381,26.983,57.381,26.983,57.381c-0.436,3.755-0.65,7.341-0.733,10.165   c-0.248,8.074-9.011,17.784-9.078,29.718c-0.027,4.837-8.619,11.546-10.047,14.774c0.702,0.581,1.503,1.063,2.401,1.447   c1.415,0.612,3.072,0.996,4.977,1.176l0,0c-1.905-0.18-3.562-0.563-4.977-1.176c3.727-3.216,8.842-4.625,13.797-5.088   c0.551-0.051,1.102-0.092,1.654-0.125c-2.142-1.368-3.526-2.672-2.541-5.372c1.541-4.229,8.688-2.943,9.471-7.377   c0.654-3.713-4.53-8.72-2.847-12.092c1.157-2.313,5.168-7.763,6.197-10.138c1.479-3.41-2.03-7.071-3.87-9.569   C30.103,61.979,28.748,59.05,26.983,57.381"/>
	<path fill="#D1D1D1" d="M70.129,114.647L70.129,114.647c0.086,0,0.17,0.001,0.255,0.001h0.001   C70.3,114.648,70.216,114.647,70.129,114.647L70.129,114.647"/>
	<polyline fill="#D18600" points="35.731,47.63 47.35,55.691 69.157,55.691 53.988,53.795 58.72,50.712 46.638,50.712 35.731,47.63     "/>
	<path fill="#B37200" d="M75.972,81.061h-9.181l7.926,1.366C75.168,82.001,75.586,81.544,75.972,81.061"/>
	<path fill="#FFB126" d="M34.458,93.969c0.215,5.658,3.468,10.798,7.919,13.527c0.876-0.148,1.75-0.331,2.617-0.549   C40.309,103.725,35.698,98.064,34.458,93.969"/>
	<path fill="#FFB126" d="M53.546,40.483c12.09,7.938,11.349,7.147,19.006,11.178c0.545,0.021,1.498,0.03,2.658,0.03   c0.126,0,0.255,0,0.386,0c-0.51-1.574-0.997-3.153-1.413-4.75c-0.038-0.146-0.076-0.293-0.112-0.441   c-0.445,0.214-0.943,0.449-1.519,0.715C69.755,46.148,57.522,42.789,53.546,40.483"/>
	<path fill="#FFB126" d="M77.891,58.823l-19.171,8.25l15.429,8.298l5.122-1.893c0.246-1.305,0.375-2.643,0.396-3.975h-5.293   L71.01,64.82l7.325-4.426C78.193,59.869,78.045,59.346,77.891,58.823"/>
	<path fill="#D1D1D1" d="M27.556,53.21c-0.157,0.971-0.296,1.946-0.42,2.913c0,0,0,0,0.001,0v0   C27.261,55.155,27.4,54.181,27.556,53.21 M46.208,27.126c-4.751,2.351-10.036,5.955-13.385,10.633   C36.174,33.082,41.458,29.478,46.208,27.126"/>
	<path fill="#D18600" d="M51.732,24.841c-1.625,0.532-3.527,1.298-5.523,2.285c-4.75,2.352-10.034,5.956-13.385,10.633   c-0.312,0.436-0.608,0.881-0.884,1.336c-2.154,3.538-3.524,8.782-4.383,14.115c-0.156,0.971-0.295,1.945-0.419,2.912v0   c1.095-0.361,2.085-0.996,2.835-1.911c0.673-0.825-0.143-2.803,0.294-3.775c1.356-3.001,5.021-4.064,6.757-6.871   c1.442-2.333,1.171-6.15,3.083-8.123c3.011-3.11,10.849-2.077,11.722-6.283C51.894,27.524,51.926,26.068,51.732,24.841"/>
	<path fill="#FFB126" d="M50.114,35.063c-1.879,0-4.138,1.779-4.33,3.69c-0.066,0.657,0.077,1.358-0.208,1.955   c-0.401,0.837-1.441,1.095-2.338,1.34c-0.896,0.246-1.919,0.754-1.998,1.68c-0.047,0.556,0.294,1.088,0.744,1.42   c0.448,0.333,0.994,0.502,1.528,0.667c1.169,0.359,2.339,0.72,3.509,1.079c0.224,0.069,0.468,0.136,0.7,0.136   c0.161,0,0.316-0.032,0.455-0.118c0.517-0.321,0.407-1.082,0.324-1.684c-0.211-1.531,0.269-3.115,1.189-4.342   c1.17-1.56,3.47-1.712,2.752-4.003C52.033,35.583,51.129,35.063,50.114,35.063"/>
	<path fill="#D1D1D1" d="M93.533,45.253c0.106,0.153,0.214,0.307,0.32,0.461c1.838,2.652,2.985,4.851,3.712,6.819   c-0.727-1.969-1.873-4.167-3.711-6.818C93.747,45.561,93.64,45.406,93.533,45.253 M85.314,34.913c0,0.001,0.001,0.003,0.001,0.004   c0.727,0.777,1.446,1.585,2.16,2.422C86.762,36.5,86.041,35.691,85.314,34.913"/>
	<path fill="#D2D2D2" d="M102.308,74.195c0.981,1.703,1.908,3.426,2.087,4.896c0.079,0.66,0.143,1.387,0.196,2.164   c-0.053-0.777-0.117-1.503-0.195-2.163C104.218,77.619,103.291,75.9,102.308,74.195"/>
	<path fill="#D1D1D1" d="M55.774,112.97c0.429,0.037,0.855,0.096,1.278,0.18c5.337,1.058,9.615,1.479,13.077,1.498   c-0.001,0-0.001-0.001-0.002-0.001c-3.459-0.02-7.738-0.439-13.077-1.498C56.628,113.065,56.203,113.007,55.774,112.97    M83.376,111.884c-0.331,0.158-0.688,0.326-1.072,0.498c-2.388,1.063-5.907,2.267-11.919,2.267l0,0   C77.365,114.648,80.986,113.027,83.376,111.884 M105.592,102.305c0.377,2.184,0.974,3.665,2.314,5.501   C106.565,105.97,105.97,104.488,105.592,102.305 M104.693,83.117c0.096,2.249,0.128,4.762,0.165,7.218   C104.821,87.878,104.789,85.365,104.693,83.117"/>
	<path fill="#ACACAC" d="M82.304,112.382c-2.388,1.062-5.907,2.266-11.919,2.266c-0.085,0-0.169-0.001-0.255-0.001   c-0.001,0-0.002,0-0.003,0c0.001,0,0.001,0.001,0.002,0.001h0.001c0.086,0,0.17,0.001,0.255,0.001   C76.396,114.648,79.916,113.445,82.304,112.382"/>
	<path fill="#D1D1D1" d="M50.017,113.497c-1.264,0.279-2.518,0.629-3.741,0.973c-0.001,0.001-0.002,0.001-0.003,0.002   C47.498,114.127,48.752,113.777,50.017,113.497 M112.551,113.148c-2.095,0.232-3.987,0.36-5.709,0.407   C108.563,113.51,110.456,113.382,112.551,113.148C112.551,113.149,112.551,113.149,112.551,113.148"/>
	<path fill="#FFB126" d="M42.438,66.64c-0.678,0-1.131,1.191-0.895,2.709c0.772,4.972,2.942,10.323,2.305,10.552   c-0.008,0.003-0.018,0.005-0.027,0.005c-0.269,0-1.007-1.129-1.808-2.258c-0.8-1.129-1.662-2.258-2.176-2.258   c-0.041,0-0.08,0.007-0.117,0.022c-1.798,0.743-0.634,5.147,6.553,16.869c1.546,2.521,4.23,5.176,6.264,8.435   c0.483,0.775,0.99,1.573,1.666,2.171c1.438-1.002,2.743-2.16,3.862-3.48c-1.116-3.202-4.693-8.125-4.024-8.364   c0.009-0.003,0.02-0.005,0.03-0.005c0.274,0,0.98,1.065,1.878,2.132c0.899,1.065,1.991,2.132,3.038,2.132   c0.087,0,0.173-0.007,0.259-0.022c2.14-0.38,1.005-4.264,0.24-6.298c-0.764-2.035-2.113-3.788-3.442-5.508   c-2.765-3.575-3.559-11.668-6.079-11.668c-0.058,0-0.117,0.004-0.176,0.013c-1.577,0.229-0.063,9.007-0.921,9.122   c-0.361-0.042-3.277-8.312-4.916-12.47C43.438,67.165,42.888,66.64,42.438,66.64"/>
	<path fill="#E69300" d="M43.297,115.266c-1.677,0.389-3.326,0.539-4.911,0.539c-0.526,0-1.044-0.017-1.555-0.046   c0.713,0.049,1.449,0.077,2.205,0.077c0.162,0,0.326-0.001,0.49-0.004C40.694,115.813,41.962,115.587,43.297,115.266    M25.864,114.06c-0.204,0-0.392,0.013-0.564,0.038c-3,0.444-5.686,0.684-8.062,0.684c-0.962,0-1.874-0.039-2.735-0.12   c0.863,0.081,1.776,0.121,2.741,0.121c2.375,0,5.059-0.24,8.057-0.685c0.169-0.025,0.354-0.037,0.554-0.037   c1.015,0,2.412,0.301,4.123,0.655C28.296,114.362,26.89,114.06,25.864,114.06 M95.022,90.046L95.022,90.046l-11.521,6.528   l-12.314,2.321l11.711-3.235L95.022,90.046 M92.992,83.432L92.992,83.432L81.471,89.96l-12.313,2.321l11.71-3.234L92.992,83.432    M75.289,26.612c-0.708,1.63-1.085,3.531-1.453,5.198c1.674,1.135,3.474,1.951,5.357,2.83c-0.412,0.04-0.831,0.061-1.25,0.061   c-1.574,0-3.17-0.289-4.56-0.924c-0.857,4.184-0.344,8.611,0.687,12.724c2.677-1.289,3.447-1.836,7.711-3.988   c-2.538-2.309-5.386-4.513-7.66-7.067c5.235,1.99,9.899,5.162,14.336,10.399c-0.964,2.787-1.453,3.565-2.995,5.632   c-1.938,0.131-6.589,0.208-9.866,0.214c0.77,2.378,1.591,4.743,2.295,7.132l10.582-4.553l-10.138,6.125   c0.51,1.9,0.925,3.82,1.159,5.779c0.13,1.092,0.189,2.208,0.172,3.329h10.36l-10.756,3.975c-0.529,2.801-1.599,5.451-3.299,7.583   h3.385l10.67-7.113l-9.483,9.484l-5.826-1.005c-0.573,0.541-1.2,1.031-1.884,1.463c-2.88,1.821-6.544,2.479-8.851,4.986   c-1.773,1.931-2.417,4.609-3.57,6.96c-0.639,1.302-1.431,2.49-2.347,3.57c0.059,0.171,0.111,0.336,0.156,0.495   c0.806,2.896-0.497,3.857-1.85,3.857c-0.552,0-1.112-0.16-1.541-0.413c-0.226-0.133-0.433-0.288-0.627-0.459   c-2.716,1.894-5.905,3.231-9.209,4.061c2.066,1.421,4.146,2.368,5.958,2.498c-0.532,0.07-1.061,0.104-1.588,0.104   c-2.469,0-4.864-0.753-6.987-2.054c-0.769,0.13-1.54,0.234-2.307,0.312c-5.009,0.513-10.071,0.163-15.093,0.464   c0.6,0.384,1.26,0.771,1.943,1.197c5.022,3.117,11.499,2.564,16.658,5.728c0.001,0,0.002-0.001,0.004-0.001   c0.871-0.216,1.773-0.467,2.691-0.726c0.001,0,0.002-0.001,0.003-0.001c4.025-2.521,8.401-4.474,12.961-5.787   c1.562-0.448,3.142-0.821,4.733-1.156c-0.44-1.59-0.467-3.268,0.064-4.826c0.001-0.001,0.001-0.001,0.001-0.002l0,0l0,0   c0,0.001,0,0.001-0.001,0.002c-0.232,0.691,2.598,2.624,4.655,3.909c3.917-0.727,7.833-1.445,11.606-2.702   c1.046-0.349,2.087-0.751,3.109-1.209H72.552l12.106-2.195l7.747-4.254c1.537-1.795,2.719-3.848,3.379-6.159   c0.211-0.738,0.363-1.477,0.463-2.218l-10.374,6.097l-13.319,2.973l17.474-9.086c0,0,2.952-3.914,5.672-7.36   c-1.236-4.784-3.934-9.449-6.568-13.712c4.063-9.109,2.974-20.319-2.769-28.471c-0.517-1.358-0.857-2.476-1.047-3.396   c-0.001-0.001-0.002-0.002-0.003-0.003C82.146,31.517,78.839,28.703,75.289,26.612L75.289,26.612"/>
	<path fill="#A16700" d="M73.836,31.811c-0.089,0.403-0.177,0.792-0.27,1.161c-0.066,0.267-0.128,0.536-0.183,0.805   c1.39,0.636,2.985,0.924,4.56,0.924c0.419,0,0.838-0.021,1.25-0.061C77.31,33.762,75.51,32.946,73.836,31.811"/>
	<path fill="#BD7900" d="M24.978,108.272c-0.552,0.033-1.104,0.074-1.654,0.125c-4.955,0.463-10.07,1.872-13.797,5.088   c1.415,0.612,3.072,0.996,4.977,1.176c0.861,0.081,1.773,0.12,2.735,0.12c2.376,0,5.062-0.239,8.062-0.684   c0.173-0.025,0.361-0.038,0.564-0.038c1.025,0,2.432,0.303,4.114,0.656c0.367,0.076,0.748,0.154,1.143,0.232   c1.674,0.332,3.594,0.664,5.71,0.811c0.51,0.029,1.029,0.046,1.555,0.046c1.585,0,3.234-0.15,4.911-0.539   c0.093-0.022,0.187-0.045,0.281-0.068c-5.159-3.163-11.636-2.61-16.658-5.728C26.237,109.044,25.578,108.656,24.978,108.272"/>
	<polyline fill="#BD7900" points="64.036,102.698 64.035,102.7 64.036,102.698  "/>
	<path fill="#BD7900" d="M64.035,102.7c-0.531,1.559-0.505,3.236-0.064,4.826c1.567-0.331,3.144-0.624,4.72-0.917   C66.633,105.324,63.803,103.392,64.035,102.7"/>
	<path fill="#A16700" d="M90.026,73.947l-10.67,7.113h-3.385c-0.386,0.483-0.804,0.94-1.255,1.366l5.826,1.005L90.026,73.947"/>
	<path fill="#A16700" d="M92.405,96.249l-7.747,4.254l-12.106,2.195h10.854C86.835,101.163,90.04,99.012,92.405,96.249"/>
	<polyline fill="#A16700" points="95.022,90.046 82.898,95.66 71.188,98.896 83.502,96.574 95.022,90.046  "/>
	<polyline fill="#A16700" points="92.992,83.432 80.867,89.047 69.157,92.281 81.471,89.96 92.992,83.432  "/>
	<path fill="#E6A022" d="M44.994,106.947c-0.867,0.218-1.741,0.4-2.617,0.549c2.123,1.301,4.518,2.054,6.987,2.054   c0.527,0,1.056-0.034,1.588-0.104C49.14,109.315,47.06,108.368,44.994,106.947"/>
	<path fill="#E6A022" d="M74.121,35.445c2.274,2.555,5.122,4.759,7.66,7.067c-4.264,2.152-5.034,2.699-7.711,3.988   c0.036,0.147,0.074,0.294,0.112,0.441c0.416,1.596,0.903,3.175,1.413,4.75c3.277-0.006,7.928-0.083,9.866-0.214   c1.542-2.067,2.031-2.845,2.995-5.632C84.021,40.607,79.356,37.436,74.121,35.445"/>
	<path fill="#E6A022" d="M90.026,69.503h-10.36c-0.021,1.332-0.149,2.67-0.396,3.975L90.026,69.503 M88.473,54.27l-10.582,4.553   c0.154,0.523,0.303,1.046,0.444,1.572L88.473,54.27"/>
	<path fill="#E6A022" d="M95.699,80.495c-2.72,3.446-5.672,7.36-5.672,7.36l-17.474,9.086l13.319-2.973l10.374-6.097   C96.579,85.408,96.329,82.936,95.699,80.495"/>
	<path fill="#E69300" d="M87.476,37.339c2.058,2.415,4.067,5.068,6.058,7.914C91.545,42.405,89.535,39.753,87.476,37.339"/>
	<path fill="#E69300" d="M97.565,52.533c2.07,5.616,0.715,9.364,2.183,16.436c0.275,1.328,1.229,2.944,2.205,4.614   c0.118,0.203,0.237,0.407,0.354,0.612c-0.117-0.204-0.235-0.408-0.354-0.611c-0.977-1.671-1.931-3.288-2.204-4.614   C98.28,61.896,99.637,58.149,97.565,52.533"/>
	<path fill="#E69300" d="M104.591,81.256c0.036,0.531,0.066,1.085,0.094,1.658c0.003,0.067,0.006,0.136,0.009,0.203   c-0.003-0.068-0.006-0.137-0.009-0.204C104.657,82.341,104.627,81.786,104.591,81.256"/>
	<path fill="#E69300" d="M104.858,90.335c0.049,3.199,0.105,6.303,0.319,8.599c0.125,1.319,0.249,2.413,0.414,3.371   c-0.165-0.959-0.288-2.054-0.413-3.373C104.965,96.637,104.907,93.535,104.858,90.335"/>
	<path fill="#E69300" d="M54.614,112.921c-1.521,0-3.066,0.237-4.597,0.576c1.532-0.339,3.078-0.575,4.6-0.575   c0.387,0,0.773,0.015,1.157,0.048C55.39,112.937,55.002,112.921,54.614,112.921 M86.532,110.778c-0.588,0-1.181,0.199-1.873,0.503   c-0.391,0.172-0.813,0.378-1.283,0.603c0.471-0.225,0.894-0.431,1.285-0.603C85.352,110.979,85.943,110.779,86.532,110.778   c4.957,0.001,8.794,2.799,18.783,2.799c0.493,0,1.002-0.007,1.526-0.021c-0.521,0.015-1.027,0.021-1.518,0.021   C95.33,113.577,91.493,110.778,86.532,110.778 M107.906,107.806c1.029,1.411,2.498,3.032,4.644,5.343c0.001,0,0.001,0,0.001,0   C110.405,110.838,108.936,109.217,107.906,107.806"/>
	<path fill="#BD7900" d="M85.315,34.917c0.189,0.92,0.53,2.037,1.047,3.396c5.742,8.151,6.832,19.361,2.769,28.471   c2.635,4.263,5.332,8.928,6.568,13.712c2.062-2.612,3.99-4.957,4.399-5.125l1.854-1.787c0.118,0.203,0.237,0.407,0.354,0.612l0,0   c-0.117-0.205-0.236-0.409-0.354-0.612c-0.977-1.67-1.93-3.286-2.205-4.614c-1.468-7.071-0.112-10.82-2.183-16.436   c-0.727-1.969-1.874-4.167-3.712-6.819c-0.106-0.154-0.214-0.308-0.32-0.461c-1.99-2.846-4-5.499-6.058-7.914   C86.762,36.502,86.042,35.694,85.315,34.917"/>
	<path fill="#BD7900" d="M63.971,107.526c-1.591,0.335-3.171,0.708-4.733,1.156c-4.561,1.313-8.936,3.266-12.961,5.787   c1.223-0.344,2.477-0.693,3.741-0.973c1.531-0.339,3.076-0.576,4.597-0.576c0.389,0,0.776,0.016,1.161,0.049   c0.428,0.037,0.854,0.096,1.276,0.179c5.338,1.059,9.618,1.479,13.077,1.498c-1.474-0.786-2.824-1.782-3.929-3.033   C65.169,110.446,64.386,109.025,63.971,107.526 M83.687,108.066c0.011-1.16,0.887-2.158,1.899-2.725   c2.161-1.208,4.616-1.523,6.736-2.913c1.754-1.148,5.291-5.557,8.018-6.905c3.332,4.382,4.593,12.021,7.02,14.753   c-5.711-2.104-11.539-3.316-16.908-3.316c-0.368,0-0.732,0.006-1.096,0.018C87.465,107.341,85.576,107.703,83.687,108.066    M104.591,81.256c0.036,0.531,0.066,1.085,0.094,1.658l-8.438,4.958c-0.1,0.741-0.252,1.479-0.463,2.218   c-0.66,2.312-1.842,4.364-3.379,6.159l5.208-2.859l-12.531,9.309h-1.676c-1.022,0.458-2.063,0.86-3.109,1.209   c-3.773,1.257-7.689,1.976-11.606,2.702c0.939,0.587,1.717,1.039,1.97,1.177c2.527,1.38,5.269,2.361,8.095,2.897   c1.626,0.309,4.196-0.033,5.903,0.598c-0.667,0.293-1.425,0.687-2.354,1.101c0.385-0.172,0.741-0.34,1.072-0.498   c0.47-0.225,0.893-0.431,1.283-0.603c0.692-0.304,1.285-0.503,1.873-0.503c4.961,0,8.798,2.799,18.792,2.799   c0.49,0,0.997-0.007,1.518-0.021c1.722-0.047,3.614-0.175,5.709-0.407c-2.146-2.311-3.615-3.932-4.645-5.343   c-1.341-1.836-1.938-3.317-2.314-5.501c-0.165-0.958-0.289-2.052-0.414-3.371c-0.214-2.296-0.271-5.399-0.319-8.599   c-0.037-2.456-0.069-4.969-0.165-7.218c-0.003-0.067-0.006-0.136-0.009-0.203C104.657,82.341,104.627,81.787,104.591,81.256   L104.591,81.256"/>
	<path fill="#9B6300" d="M68.69,106.609c-1.576,0.293-3.152,0.586-4.72,0.917c0.415,1.499,1.198,2.92,2.228,4.087   c1.104,1.251,2.455,2.247,3.929,3.033c0.001,0,0.002,0,0.003,0c0.086,0,0.17,0.001,0.255,0.001c6.012,0,9.531-1.203,11.919-2.266   c0.93-0.414,1.688-0.808,2.354-1.101c-1.707-0.631-4.277-0.289-5.903-0.598c-2.826-0.536-5.567-1.518-8.095-2.897   C70.407,107.648,69.63,107.196,68.69,106.609"/>
	<path fill="#855500" d="M97.613,93.39l-5.208,2.859c-2.365,2.763-5.57,4.914-8.999,6.449h1.676L97.613,93.39"/>
	<path fill="#BD831C" d="M100.34,95.523c-2.727,1.349-6.264,5.757-8.018,6.905c-2.12,1.39-4.575,1.705-6.736,2.913   c-1.013,0.566-1.889,1.564-1.899,2.725c1.89-0.363,3.778-0.726,5.669-1.089c0.363-0.012,0.728-0.018,1.096-0.018   c5.369,0,11.197,1.212,16.908,3.316C104.933,107.544,103.672,99.905,100.34,95.523"/>
	<path fill="#BD831C" d="M101.953,73.583l-1.854,1.787c-0.409,0.168-2.338,2.513-4.399,5.125c0.63,2.44,0.88,4.913,0.548,7.377   l8.438-4.958c-0.027-0.573-0.058-1.127-0.094-1.658c-0.054-0.777-0.117-1.504-0.196-2.164c-0.179-1.471-1.105-3.193-2.087-4.896   C102.19,73.99,102.071,73.786,101.953,73.583"/>
	<path fill="#E6A022" d="M58.065,99.406c-1.12,1.32-2.425,2.479-3.862,3.48c0.194,0.171,0.402,0.326,0.627,0.459   c0.429,0.253,0.989,0.413,1.541,0.413c1.354,0,2.656-0.961,1.85-3.857C58.177,99.742,58.125,99.577,58.065,99.406"/>
</g>
</svg>