<?xml version="1.0" encoding="UTF-8"?>
<!-- Generator: Adobe Illustrator 15.0.2, SVG Export Plug-In . SVG Version: 6.00 Build 0)  -->
<!DOCTYPE svg PUBLIC "-//W3C//DTD SVG 1.1//EN" "http://www.w3.org/Graphics/SVG/1.1/DTD/svg11.dtd">
<svg version="1.1" id="Layer_1" xmlns="http://www.w3.org/2000/svg" xmlns:xlink="http://www.w3.org/1999/xlink" x="0px" y="0px" width="120px" height="120px" viewBox="0 0 120 120" enable-background="new 0 0 120 120" xml:space="preserve">
<g>
	<g>
		<polygon stroke="#000000" stroke-width="2.8" stroke-miterlimit="10" points="31.365,4.972 22.99,4.972 22.236,4.972     13.861,4.972 9.83,7.962 9.83,28.313 14.748,28.313 14.748,10.798 17.379,9.208 27.884,9.208 30.515,10.798 30.515,28.313     35.396,28.313 35.396,7.961   "/>
		<polygon stroke="#000000" stroke-width="2.8" stroke-miterlimit="10" points="104.99,4.972 96.615,4.972 95.861,4.972     87.486,4.972 83.455,7.962 83.455,28.313 88.373,28.313 88.373,10.798 91.004,9.208 101.509,9.208 104.14,10.798 104.14,28.313     109.021,28.313 109.021,7.961   "/>
	</g>
	<g>
		<polygon fill="#CB3624" points="109.922,116.874 8.655,116.874 2.965,110.771 2.965,20.932 115.887,20.932 115.887,110.771   "/>
		<g>
			<path fill="#D2D2D2" d="M76.803,91.299c0,2.659-2.159,4.818-4.82,4.818H46.868c-2.662,0-4.819-2.159-4.819-4.818v-44.79     c0-2.658,2.157-4.821,4.819-4.821H71.98c2.662,0,4.821,2.163,4.821,4.821L76.803,91.299L76.803,91.299z"/>
			<g>
				<g>
					<polygon fill="#007A6D" points="68.982,46.289 68.982,91.517 59.875,86.029 58.974,86.029 49.869,91.517 49.869,46.289             "/>
					<g>
						<circle fill="#FFFFFF" cx="59.425" cy="64.067" r="11.911"/>
						<circle fill="#D2D2D2" cx="59.424" cy="64.07" r="7.903"/>
					</g>
				</g>
			</g>
		</g>
	</g>
</g>
</svg>